# xmcd
#
# Track frame offsets:
#	183
#	23873
#	40378
#	52613
#	66553
#	81795
#	96130
#	108710
#	119888
#	137505
#	152435
#
# Disc length: 2195 seconds
#
# Revision: 0
# Processed by: cddbd v1.4PL0 Copyright (c) Steve Scherf et al.
# Submitted via: EasyCDDAExtractor 5.0.2.1
#
DISCID=9208910b
DTITLE=Peter Sarstedt - The Best Of Peter Sarstedt
DYEAR=1900
DGENRE=
TTITLE0=Where do you go to my lovely
TTITLE1=Sons of Cain and Able
TTITLE2=Boulevard
TTITLE3=Every word you say
TTITLE4=Time was leading us home
TTITLE5=Frozen Orange juice
TTITLE6=I am a cathedral
TTITLE7=Once upon an everyday
TTITLE8=As though it were a movie
TTITLE9=You're a Lady
TTITLE10=Without darkness
EXTD=
EXTT0=
EXTT1=
EXTT2=
EXTT3=
EXTT4=
EXTT5=
EXTT6=
EXTT7=
EXTT8=
EXTT9=
EXTT10=
PLAYORDER=
